<svg width="50" height="50" viewBox="0 0 50 50" fill="none" xmlns="http://www.w3.org/2000/svg">
<path fill-rule="evenodd" clip-rule="evenodd" d="M-3.49691e-07 9C-1.56562e-07 6.79086 1.79086 5 4 5L46 5C48.2091 5 50 6.79087 50 9C50 11.2091 48.2091 13 46 13L4 13C1.79086 13 -5.4282e-07 11.2091 -3.49691e-07 9Z" fill="#333333"/>
<path fill-rule="evenodd" clip-rule="evenodd" d="M-3.49691e-07 25C-1.56562e-07 22.7909 1.79086 21 4 21L46 21C48.2091 21 50 22.7909 50 25C50 27.2091 48.2091 29 46 29L4 29C1.79086 29 -5.4282e-07 27.2091 -3.49691e-07 25Z" fill="#333333"/>
<path fill-rule="evenodd" clip-rule="evenodd" d="M-3.49691e-07 41C-1.56562e-07 38.7909 1.79086 37 4 37L46 37C48.2091 37 50 38.7909 50 41C50 43.2091 48.2091 45 46 45L4 45C1.79086 45 -5.4282e-07 43.2091 -3.49691e-07 41Z" fill="#333333"/>
</svg>
