<svg width="50" height="50" viewBox="0 0 50 50" fill="none" xmlns="http://www.w3.org/2000/svg">
<path fill-rule="evenodd" clip-rule="evenodd" d="M20 32C26.6274 32 32 26.6274 32 20C32 13.3726 26.6274 8 20 8C13.3726 8 8 13.3726 8 20C8 26.6274 13.3726 32 20 32ZM20 40C31.0457 40 40 31.0457 40 20C40 8.9543 31.0457 0 20 0C8.9543 0 0 8.9543 0 20C0 31.0457 8.9543 40 20 40Z" fill="#333333"/>
<path fill-rule="evenodd" clip-rule="evenodd" d="M43.1716 48.8284L29.1716 34.8284L34.8284 29.1716L48.8284 43.1716C50.3905 44.7337 50.3905 47.2663 48.8284 48.8284C47.2663 50.3905 44.7337 50.3905 43.1716 48.8284Z" fill="#333333"/>
</svg>
